<svg xmlns="http://www.w3.org/2000/svg" viewBox="0 0 63.88 63.88"><g fill="#010002"><path d="M.06 31.6c.5-3.14 1.6-6.31 3.25-9.04a6.97 6.97 0 0 0 4.6 4.73c-.32.7-.6 1.42-.86 2.15 1.1.03 2.2.03 3.3-.02 1.73-2.4 5.36-3.7 8.32-1.4.74-1.59 1.3-3.22 1.6-4.93-1.32.08-2.64.18-3.94.36a6.84 6.84 0 0 0-.35-6.27c2.54-.3 5.12-.39 7.67-.6 1.75-.14 3.1 1.54 3.15 3.15.15 4.43-1.14 8.56-3.14 12.43 2 1.61 3.88 3.07 5.94 4.74a58.63 58.63 0 0 1 8.69-6.93c1.58-1.06 3.42-.43 4.77.62l12.33 9.68a3.55 3.55 0 0 1 1.2 1.6h3.48c5.08 0 5.08 7.86 0 7.86H30.2a6.73 6.73 0 0 1-4.6-1.88c-5.48-4.74-9-7.13-14.48-11.87a5.41 5.41 0 0 1-.35-.34c-2.57.12-5.15.05-7.69-.06-2.2-.1-3.35-1.92-3.02-3.98zm44.73 10.27l-4.64-3.64a40.2 40.2 0 0 0-4.5 3.64h9.14z"/><path d="M9.81 26.38a6.12 6.12 0 1 1 .01-12.24 6.12 6.12 0 0 1-.01 12.24z"/></g></svg>