<svg version="1" xmlns="http://www.w3.org/2000/svg" width="1365.333" height="1365.333" viewBox="0 0 1024.000000 1024.000000"><path d="M318.9 171.4c-.2.2-4.4.7-9.4 1.1-4.9.3-9.7.8-10.5 1-.8.2-4 .7-7 1-3 .3-7.1 1-9 1.5-1.9.5-5.3 1.1-7.5 1.4-2.2.3-9.4 1.8-16 3.5-51.7 12.8-98 36.5-140 71.3-7.8 6.5-32.4 31.5-40.1 40.8-44.7 53.7-71 116.5-78.2 186.5-1 9.5-.9 55.1.1 65 1.9 18.2 4.3 32.7 8.2 48 .8 3.3 1.7 6.8 2 7.9 2.6 10.8 9.8 31.7 16 46.1C44.4 685.9 68.7 721.8 99 752c34.9 34.8 65.4 55 115.5 76.6 12.3 5.3 48.8 15.9 61 17.8 2.2.4 4.7.8 5.5 1.1.8.2 3.5.6 6 .9 2.5.3 5.6.8 7 1 19.1 3.4 70 4 85.3 1 1.2-.2 4.5-.6 7.2-.9 7.4-.9 22.6-3.6 30.5-5.6 2.5-.6 5.3-1.2 6.2-1.4 3.8-.8 17.5-4.7 20.3-5.8 1.7-.6 3.5-1.2 4-1.3 6.5-1.1 38.9-15.1 53.9-23.2 8.8-4.7 28.9-16.8 32-19.3.6-.4 6.1-4.5 12.1-9 6.1-4.5 11.5-8.6 12-9.3.6-.6 3.2-2.9 6-5.1 9.5-7.6 30.1-28.6 39-39.8 1.7-2.1 4-5 5.3-6.5 1.3-1.5 3.7-4.7 5.4-7.2 1.8-2.5 3.5-4.7 3.8-5 1.3-1 13-18.9 13-19.9 0-.5.4-1.1.8-1.3 2.3-.9 20.5-37 26.8-53.1 3.3-8.7 3.9-9.6 4.9-7.7.6 1.1 1.4 1.7 1.8 1.4.4-.4.7 0 .7.8 0 .9.7 1.9 1.6 2.2.8.3 1.2 1.1.9 1.6-.4.6-.3 1 .2.9 1.7-.3 3.3.1 3.1.8-.4 1.2 3.5 5.3 4.9 5.3.7 0 1.3.8 1.3 1.7 0 1.5.2 1.6 1 .3.9-1.3 1-1.3 1 0 0 .8 1.4 2.4 3 3.5s3 2.3 3 2.7c0 .5.5.8 1 .8 1.9 0 6.9 4.3 6.3 5.3-.3.6-.2.8.3.5 1.2-.8 7.5 2.7 6.6 3.6-.4.4-.2.6.3.5 1.6-.5 5.5 1.1 5.5 2.2 0 .6.5.7 1.1.4.5-.4 1.9.1 3 1.1s2.7 1.9 3.6 2c.9.2 1.9.8 2.3 1.5.5.6 1.5.9 2.4.6.9-.4 1.6-.2 1.6.4 0 .6.4.8.9.5.5-.4 1.1-.2 1.3.4.1.5 1.5 1.1 3.1 1.2 1.5.1 2.7.6 2.7 1s1.4.8 3 .8c1.7 0 3 .4 3 .8 0 .5 1.4.9 3 1 5 .3 6 .5 6 1.2 0 .4 1.4.7 3.1.8 1.7 0 3.6.5 4.2.9.7.5 2.3.8 3.7.7 1.4-.1 3.1.3 3.9 1 1.2.8 1.3.8.7-.2-.4-.6-.2-1.2.3-1.2.6 0 1.1.3 1.1.7 0 .5 2.1.8 4.8.7 2.6 0 5.1.2 5.7.5 1.6.9 4.4.8 3.9-.1-.3-.4.6-.4 2 .2 1.5.5 2.6.6 2.6.1 0-1 1.9-.9 3.6.2.6.3 1.4.3 1.8 0 .6-.7 3.4-1.1 10.6-1.6 1.9-.1 4.1-.6 4.8-1.1.7-.4 1.6-.6 1.8-.3.3.2 2.2.1 4.2-.4 7.8-2 8.4-2 7.7-.7-.4.7.1.4.9-.6.9-1.1 1.6-1.6 1.6-1.2 0 .5.7.3 1.5-.4 1.2-1 1.5-1 1.5.1 0 1 .2 1.1.8.2.4-.6 1.9-1.4 3.2-1.7 1.4-.3 3.9-.9 5.7-1.5 1.7-.5 3.5-.6 3.9-.3.4.4.4.1 0-.6-.6-1.1 1.8-1.8 4.7-1.3.4 0 .7-.4.7-1 0-.5.4-.8.9-.5.5.4 1.1.2 1.3-.4.1-.5 1.2-1.1 2.3-1.3 1.1-.2 3-.8 4.1-1.5 1.2-.6 2.4-.8 2.8-.5.3.3.6.1.6-.5s1-1.4 2.3-1.8c1.2-.3 3-1.3 4-2.2.9-.8 1.7-1.2 1.7-.7 0 .4.7.2 1.5-.5s1.5-1 1.5-.6c0 .3.8-.1 1.8-.9.9-.8 2.2-1.6 2.7-1.7.6-.1 1.5-.6 2.2-1.2 3.3-3 4.3-3.6 4.3-3 0 .4 1-.2 2.3-1.4 1.3-1.2 2.7-1.9 3-1.5.4.3.7.1.7-.5 0-.5 1.5-2 3.3-3.1 1.8-1.1 4.4-2.9 5.6-4.1 1.3-1.1 2.8-2 3.3-2s.6-.5.2-1.2c-.4-.6-.3-.8.4-.5.5.4 3.4-1.5 6.3-4.3 2.8-2.7 5.7-4.7 6.3-4.3.6.3.8.3.5-.1-.4-.4 3.1-4.5 7.7-9.1 4.6-4.7 8-8.5 7.7-8.5-.3 0 .7-1.1 2.3-2.5 1.6-1.4 2.5-2.5 2-2.5s.2-.9 1.5-2c1.3-1.2 3.5-3.9 4.9-6.1 1.5-2.1 2.8-3.8 3.1-3.7.2.2.3.1.1-.1-.1-.2.5-1.3 1.5-2.3.9-1 1.2-1.8.7-1.8s.2-.7 1.4-1.6c1.2-.8 2-2 1.7-2.5-.4-.5-.1-.9.4-.9.6 0 1.1-.7 1.1-1.6 0-.8.4-1.3.9-1 .5.3 1.2-.5 1.5-1.9.4-1.4 1.1-2.5 1.6-2.5.6 0 1-.7 1-1.5s.5-1.5 1-1.5c.6 0 1-.3.9-.8-.3-1.7 1.4-5.1 2.2-4.6.5.3.9-.3.9-1.3s.7-2.7 1.5-3.7 1.2-2.3.9-2.8c-.3-.5 0-.7.8-.6.8.2 1.2-.4 1-1.5-.2-.9.4-2 1.2-2.3.9-.3 1.3-1 1-1.5-.3-.5-.1-1.7.5-2.6.8-1.6 1.1-1.5 2 1 .6 1.6 1.1 3.3 1.1 3.9 0 .6.3.9.6.5.3-.3.8-4.1 1.1-8.4.6-11.2.7-11.7 1.7-12.5 1-.6 1.3-1.7 1.8-5.3.2-1.1 1-2.5 1.8-3.2 1-.8 1.1-1.2.3-1.3-.9 0-.7-1 .6-3.2 1-1.8 1.6-3.9 1.4-4.6-.3-.6-.1-1.2.4-1.2.6 0 .9-1 .8-2.3-.1-1.2.1-2.7.5-3.2.5-.6 1-2.6 1.3-4.5.5-3.4 1-5.5 2.3-10.3.3-1.2.6-3.4.6-5 0-1.5.5-2.7 1-2.7s.6-.5.3-1c-.4-.6-.2-1.7.5-2.5.8-.9.8-1.5 0-2-.7-.4-.7-1.1-.2-1.8.5-.7.8-2.4.7-4-.1-1.5.2-2.7.7-2.7.5 0 .4-.9-.2-2-.8-1.5-.8-2 .2-2 .9 0 .9-.3-.2-1-.8-.5-1-1-.4-1 .7 0 1-3.3.9-9.4-.1-6.4.2-9.3.9-8.8.8.4.8.1 0-.9-.5-.8-1.2-4.6-1.4-8.4-.4-8.6-.7-13-1-13-.2 0-.4-.9-.5-2-1-6.9-1.4-9.2-1.9-10.5-.7-1.9-1.7-7-1.8-9 0-.8-.5-2.1-1.1-2.8-.5-.6-.6-1.2-.2-1.2.4 0 .3-.6-.2-1.3-.5-.6-.9-2.1-.9-3.2.1-1.1-.5-2.6-1.2-3.4-1.1-1.1-1.1-1.6 0-2.6 1.8-1.8 10.1-4.2 18.2-5.5 7.5-1.2 33.9-1.6 35.6-.5 2.1 1.3.9-1.9-2.4-6.4-4.1-5.6-13.2-14.3-20.1-19.2-14.7-10.6-40-21.6-64.3-27.9-2.9-.7-5.9-2.7-9.2-6-2.8-2.6-5-4.5-5-4.2 0 .4-1.1-.5-2.4-2-1.2-1.5-2.6-2.5-2.9-2.1-.4.3-.9-.2-1.3-1.1-.3-.9-1.2-1.6-2-1.6s-1.4-.4-1.4-.8c0-.5-1.2-1.5-2.7-2.3-1.6-.8-3.7-2.2-4.7-3.2-1.1-.9-2.6-1.7-3.3-1.7-.7 0-1.3-.5-1.3-1.1 0-.5-.5-.7-1-.4-.5.3-1 .1-1-.5s-.4-.8-1-.5c-.5.3-1 .1-1-.4 0-.6-.7-1.1-1.5-1.1s-1.5-.4-1.5-.9-.7-1.2-1.6-1.5c-1-.4-1.3-.2-.9.7.4.6.1.5-.7-.4-.7-.9-1.9-1.4-2.5-1.2-.7.3-1.3 0-1.3-.7 0-.6-.4-.8-1-.5-.5.3-1 .2-1-.2 0-.5-1-1-2.2-1-1.3-.1-2.4-.7-2.6-1.3-.2-.5-.8-.7-1.3-.4-.6.3-2-.2-3.1-1.3-1.4-1.2-1.8-1.3-1.3-.3.8 1.3.7 1.3-.8.1-.9-.7-1.7-1-1.7-.6s-.7.2-1.5-.5c-.8-.6-1.9-.9-2.5-.5-.5.3-1 .2-1-.2 0-.5-1.4-1-3.2-1.1-1.7-.2-3.6-.6-4.2-1.1-.6-.4-2.6-.8-4.5-.9-1.8-.2-4.2-.7-5.3-1.3-1.6-.8-1.9-.8-1.3.1.5.9.3.9-1.1.2-1.1-.5-2.5-.7-3.1-.5-.7.3-1.3-.1-1.3-.7 0-.9-.3-1-1.3-.1-.8.6-1.7.8-2.1.4-.4-.4-2.1-.8-3.9-.8-1.8 0-3.8-.4-4.4-.8-.7-.5-1.3-.4-1.3 0 0 .5-1.1.9-2.5.9s-2.5-.4-2.5-.9c0-.4-.6-.5-1.2 0-2 1.2-8.2 1.2-9.7-.1-1.2-.9-1.3-.8-.6.3.6 1.1.4 1.3-.8.8-1-.4-1.7-.1-1.7.6 0 .8-.4.6-1-.3-.7-1.2-1-1.2-1-.1 0 .7-.6 1.1-1.4.8-.8-.3-1.7-.3-2 .1-.4.3-2.1.7-3.9.8-1.7 0-3.2.2-3.2.3 0 .3-1.3.5-8 1.7-2.2.3-4.3 1.1-4.7 1.8-.5.7-.8.6-.8-.4 0-1.2-.2-1.3-.9-.1-.5.7-1.4 1-2 .7-.6-.4-1.1-.2-1.1.5s-.3.9-.7.6c-.3-.4-1.2-.2-2 .4-1 .9-1.3.8-1.3-.2 0-1.2-.2-1.2-.9-.1-.4.8-1.2 1.4-1.7 1.4s-2 .5-3.4 1-3.5 1.1-4.7 1.2c-1.1.1-3.3 1-4.7 1.9-1.4 1-2.6 1.5-2.6 1.2 0-.3-1.7.4-3.7 1.5-2.1 1.1-4.2 2-4.6 2-.5 0-2.2.9-3.8 2.1-1.6 1.1-2.9 1.7-2.9 1.2 0-.4-.7.1-1.5 1.1-.8 1.1-1.5 1.6-1.5 1.2 0-.4-1.3.2-2.9 1.3-1.5 1.1-3.1 1.8-3.4 1.4-.4-.3-.9.2-1.3 1.1-.3.9-1.2 1.6-2 1.6s-1.4.4-1.4 1c0 .5-.6 1-1.4 1-.7 0-1.9.7-2.6 1.5-.7.9-1.5 1.3-1.8 1-.3-.3-1.2.4-1.9 1.5-.8 1.1-1.9 1.8-2.4 1.5-.5-.4-.9-.1-.9.5s-.8 1.4-1.7 1.7c-.9.4-2.4 1.4-3.3 2.2-.9.9-2.6 2.2-3.8 3-1.1.8-1.9 1.8-1.6 2.3.3.4-.1.8-.8.8-.8 0-3.4 1.8-5.8 4s-4.9 4-5.4 4-.6.3-.3.6c.8.8-4.4 5-5.6 4.6-.5-.1-.6.2-.3.7.7 1.1-4.9 7.3-5.8 6.4-.3-.4-.6 0-.6.7s-1 2.3-2.2 3.5c-3.5 3.5-4.7 5.2-4.2 5.8.3.3-.4.8-1.5 1.2-1.2.3-1.9 1.1-1.6 1.6.4.5.1.9-.6.9s-1 .3-.6.6c.3.3-.7 1.9-2.3 3.4-1.6 1.5-2.6 3.1-2.3 3.4.3.3-.2.8-1.1 1.2-.9.3-1.4.9-1.1 1.4.2.4-.5 1.7-1.6 2.9s-2.6 3.3-3.3 4.7c-1.3 2.4-1.3 2.4-3.1-2.3-1-2.7-4.2-9.9-7.1-16.2-3-6.2-5.4-11.4-5.4-11.6 0-1.9-22.4-38.4-27.4-44.6-1.2-1.4-3.2-4.1-4.6-5.9-14.3-19.4-38.8-44.5-59.3-60.8-34.1-27-72.2-47-114.4-59.7-10-3.1-24.7-6.8-31.8-8-9.1-1.6-15.5-2.6-25.5-3.9-2.5-.4-6.3-.9-8.5-1.2-4.8-.7-53-1.6-53.6-1zm450.5 267.8c1.4.1 2.6.6 2.6 1 0 .3.9 1 2 1.3 3 .9 7.9 5.3 9.6 8.6 2.4 4.8 2.3 8.9-.3 16.4-2.6 7-10.8 24.3-14.4 30.2l-2 3.1 4.8 1.5c11.8 3.8 25.7 4.2 37.8 1.3 3.3-.8 6.3-1.2 6.7-.8 1.1 1.1 8.2 15.1 11.7 23.2 2 4.6 2.9 7.6 2.2 7.8-.6.2-.9.8-.5 1.3.3.5 0 .9-.5.9-.6 0-1.1.7-1.1 1.5s-.4 1.5-1 1.5c-.5 0-1 .7-1 1.5s-.4 1.5-1 1.5c-.5 0-1 .7-1 1.6 0 .8-.4 1.2-1 .9-.5-.3-1.2.5-1.6 1.9-.3 1.4-1.5 2.8-2.5 3.1-1.1.4-1.7 1-1.4 1.5.3.5-.4 1.1-1.5 1.5-1.1.4-1.9.9-1.6 1.3.2.4-.8 1.8-2.2 3.2-1.3 1.4-2.1 1.8-1.7 1 .5-.8-.6 0-2.4 1.8-1.8 1.9-4.6 3.8-6.2 4.4-1.6.5-2.9 1.4-2.9 2 0 .5-.4.6-1 .3-.5-.3-1-.1-1 .4 0 .6-.7 1.1-1.5 1.1s-1.5.4-1.5 1c0 .5-.7.7-1.5.4-.8-.4-1.5-.1-1.5.5s-.3 1-.7 1c-.5-.1-1 0-1.3.1-1.4.5-4.9 1.1-8.2 1.2-2.1.2-3.8.6-3.8 1.1 0 .4-.8.4-1.7-.1-1-.5-3.3-.9-5.1-.8-1.9 0-3.6-.3-3.9-.8-.4-.5 0-.6.7-.1.8.5 1.1.4.6-.3-.4-.6-1.3-.9-2.1-.5-.8.3-1.5 0-1.5-.6s-.6-.8-1.4-.5c-.7.3-1.6-.2-2-1.1-.3-1-1.2-1.5-2.1-1.1-.9.3-1.5 0-1.5-.9 0-.8-.4-1.5-1-1.5-1.1 0-5-3.6-5-4.6 0-.4-.8-1.4-1.8-2.3-1-.9-2.5-3.1-3.3-4.9-.7-1.7-1.8-3.2-2.2-3.2-.5 0-.6-.4-.2-.9.3-.5-.2-1.6-1-2.4-.8-.9-1.5-2.7-1.5-4.1 0-1.4-.4-2.6-1-2.6-.5 0-1-1.4-1-3 0-1.7-.3-3-.8-3-.8 0-1-2.6-1.3-18-.1-5.8.2-13.2.6-16.5.5-3.3.9-7 .9-8.3.1-1.2.5-2.2.9-2.2.5 0 .5-.5.2-1-.3-.6 0-1 .7-1.1.9 0 1-.2.1-.5-.9-.4-.6-1.5.8-4.1 1.1-1.9 1.8-3.8 1.5-4-.3-.3.1-1.8.9-3.3.8-1.5 1.1-3 .8-3.4-.4-.3-.1-.6.6-.6.9 0 1.1-.8.8-2.1-.3-1.2-.3-1.8 0-1.5.4.3 1.5-.8 2.5-2.5 1.1-1.7 1.7-3.3 1.4-3.6-.3-.3 0-1 .5-1.7.5-.6 3-4.4 5.5-8.4 2.5-3.9 5-7.2 5.5-7.2s.9-.9.9-2c0-1.4.5-1.8 1.7-1.3 1.3.5 1.5.2 1-1.2-.6-1.4-.5-1.6.6-.6.8.6 2.6 1.2 4.1 1.3z"/></svg>